<?xml version="1.0" encoding="UTF-8"?>
<svg xmlns="http://www.w3.org/2000/svg" version="1.1" viewBox="0 0 429.6 72.4">
  <defs>
    <style>
      .cls-1 {
        fill: currentColor;
        stroke-miterlimit: 10;
        stroke-width: 0px;
      }
    </style>
  </defs>
  <!-- Generator: Adobe Illustrator 28.7.1, SVG Export Plug-In . SVG Version: 1.2.0 Build 142)  -->
  <g>
    <g id="Laag_1">
      <g id="Laag_2">
        <g>
          <polygon class="cls-1" points="163.3 0 138 36.2 163.3 72.4 197.7 72.4 172.5 36.2 197.7 0 163.3 0"/>
          <polygon class="cls-1" points="240.5 0 215.3 36.2 240.5 72.4 275 72.4 249.7 36.2 275 0 240.5 0"/>
          <polygon class="cls-1" points="317.8 0 292.6 36.2 317.8 72.4 352.3 72.4 327 36.2 352.3 0 317.8 0"/>
          <polygon class="cls-1" points="395.2 0 369.9 36.2 395.2 72.4 429.6 72.4 429.6 36.2 429.6 0 395.2 0"/>
          <path class="cls-1" d="M91.9,0H0v72.4h91.9c11,0,17.8-12,12.1-21.4l-8.8-14.8,8.8-14.8c5.7-9.4-1.1-21.4-12.1-21.4Z"/>
        </g>
      </g>
    </g>
  </g>
</svg>