<?xml version="1.0" encoding="UTF-8"?>
<svg xmlns="http://www.w3.org/2000/svg" version="1.1" viewBox="0 0 841.9 52.9">
  <defs>
    <style>
      .cls-1 {
        fill: #201f1f;
      }
    </style>
  </defs>
  <!-- Generator: Adobe Illustrator 28.7.1, SVG Export Plug-In . SVG Version: 1.2.0 Build 142)  -->
  <g>
    <g id="Laag_1">
      <g>
        <polygon class="cls-1" points="69.1 53 103 53 103 43.6 78.5 43.6 78.5 30.8 95.9 30.8 95.9 21.5 78.5 21.5 78.5 9.3 103 9.3 103 0 69.1 0 69.1 53"/>
        <polygon class="cls-1" points="130.6 53 164.5 53 164.5 43.6 140 43.6 140 30.8 157.4 30.8 157.4 21.5 140 21.5 140 9.3 164.5 9.3 164.5 0 130.6 0 130.6 53"/>
        <polygon class="cls-1" points="202.4 0 193 0 193 53 227.3 53 227.3 43.6 202.4 43.6 202.4 0"/>
        <path class="cls-1" d="M269.4,0h-17.1v53h17.1c14.2,0,21-9.5,21-26.5S283.6,0,269.4,0ZM270.1,43.7h-8.4V9.3h8.4c4.7,0,11.1,1.8,11.1,17.2s-6.3,17.2-11.1,17.2Z"/>
        <path class="cls-1" d="M701.8,0h-17.1v53h17.1c14.2,0,21-9.5,21-26.5S716,0,701.8,0ZM702.5,43.7h-8.4V9.3h8.4c4.7,0,11.1,1.8,11.1,17.2s-6.3,17.2-11.1,17.2Z"/>
        <path class="cls-1" d="M33.4,0H0v53h33.4c8,0,13-8.8,8.9-15.7l-6.5-10.8,6.5-10.8c4.1-6.9-.8-15.7-8.9-15.7ZM33.5,40.6c.5.8.3,1.6,0,2-.3.5-.8,1-1.8,1H10V9.3h21.7c1,0,1.5.6,1.8,1,.3.5.5,1.2,0,2l-8.4,14.1,8.4,14.1Z"/>
        <polygon class="cls-1" points="346.4 0 327.9 26.5 346.4 52.9 357.3 52.9 338.9 26.5 357.3 0 346.4 0"/>
        <rect class="cls-1" x="316.2" width="9.3" height="53"/>
        <polygon class="cls-1" points="832.6 0 832.6 36.9 817.9 0 814.9 0 808.5 0 805.6 0 805.6 53 814.9 53 814.9 16.1 829.6 53 832.6 53 839 53 841.9 53 841.9 0 832.6 0"/>
        <polygon class="cls-1" points="465.4 0 463.6 0 454.9 20.5 446.1 0 444.4 0 436.8 0 435.1 0 435.1 53 444.4 53 444.4 17.8 450 31 450.4 31 459.4 31 459.7 31 465.4 17.8 465.4 53 474.7 53 474.7 0 473 0 465.4 0"/>
        <path class="cls-1" d="M592.9,15.6c4.1-6.9-.8-15.6-8.9-15.6h-26.5v53h10.1v-21.5h9.8l7.7,21.5h10.8l-9.5-26.5,6.5-10.8ZM584.1,12.4l-5.4,9.1h-11v-12.2h14.7c1,0,1.5.6,1.8,1,.3.5.5,1.2,0,2Z"/>
        <path class="cls-1" d="M397.8,0h-9.3l-13.6,53h9.3l3.2-12.6h15.9l3.2,12.6h9.3L402.3,0h-4.5ZM389.8,31l5.6-21.6,5.6,21.6h-11.1Z"/>
        <polygon class="cls-1" points="499.5 0 499.5 53 508.9 53 533.4 53 533.4 43.6 508.9 43.6 508.9 30.8 526.3 30.8 526.3 21.5 508.9 21.5 508.9 9.3 533.4 9.3 533.4 0 508.9 0 499.5 0"/>
        <polygon class="cls-1" points="745.4 0 745.4 53 754.8 53 779.3 53 779.3 43.6 754.8 43.6 754.8 30.8 772.2 30.8 772.2 21.5 754.8 21.5 754.8 9.3 779.3 9.3 779.3 0 754.8 0 745.4 0"/>
        <path class="cls-1" d="M641.2,0h-9.3l-13.6,53h9.3l3.2-12.6h15.9l3.2,12.6h9.3l-13.6-53h-4.5ZM633.2,31l5.6-21.7,5.6,21.7h-11.1Z"/>
      </g>
    </g>
  </g>
</svg>