<?xml version="1.0" encoding="UTF-8"?><svg id="Laag_1" xmlns="http://www.w3.org/2000/svg" xmlns:xlink="http://www.w3.org/1999/xlink" viewBox="0 0 249.92 63.23"><defs><style>.cls-1{clip-path:url(#clippath);}.cls-2{fill:none;}.cls-2,.cls-3,.cls-4,.cls-5{stroke-width:0px;}.cls-3{fill:#232323;}.cls-4{fill:#d5002d;}.cls-5{fill:#fff;}</style><clipPath id="clippath"><rect class="cls-2" x="0" width="249.92" height="63.23"/></clipPath></defs><g class="cls-1"><path class="cls-4" d="m12.06,0h-5.14C3.1,0,0,3.1,0,6.92v49.32c0,3.82,3.1,6.92,6.92,6.92h83.05V0"/><path class="cls-3" d="m221.06,0H89.98v63.17h26.96c.62.03,1.25.06,1.9.06h131.08V29.13s0-29.13-28.86-29.13"/><path class="cls-5" d="m17.31,41.76h4.7c6,0,8.74-4.42,8.74-10.01,0-5.95-2.8-10.28-9.21-10.27h-4.24s.01,20.28.01,20.28Zm-6.99-23.11c0-2.14,1.49-3.58,3.58-3.58h7.72c10.42,0,16.37,6.68,16.38,17.01,0,9.77-6.32,16.09-15.9,16.1h-8.09c-1.53,0-3.67-.83-3.67-3.48v-26.04Z"/><path class="cls-5" d="m44.99,28.82c2,0,3.63,1.63,3.63,3.62,0,2-1.63,3.63-3.63,3.63-2,0-3.63-1.62-3.63-3.63,0-2,1.63-3.63,3.62-3.63"/><path class="cls-5" d="m72.59,41.73h-4.7c-6,0-8.74-4.41-8.75-9.99,0-5.95,2.78-10.28,9.2-10.28h4.23s0,0,0,0h4.99s0-2.84,0-2.84c0-2.14-1.49-3.58-3.58-3.58h-5.73c-10.42,0-16.37,6.71-16.36,17.03,0,9.77,6.33,16.09,15.91,16.08h6.11c1.53,0,3.67-.84,3.67-3.49v-2.94s-4.99,0-4.99,0h0Z"/><path class="cls-5" d="m125.81,18.87c0,1.12-.21,1.9-.64,2.33-.43.43-1.2.65-2.31.65h-4.07v23.37c0,1.12-.21,1.9-.64,2.33-.42.43-1.19.65-2.3.65h-1.52c-1.11,0-1.88-.21-2.31-.65-.43-.43-.64-1.2-.64-2.33v-23.37h-4.02c-1.11,0-1.88-.21-2.31-.65-.42-.43-.64-1.21-.64-2.33v-.79c0-1.12.21-1.9.64-2.33.43-.43,1.2-.64,2.31-.64h15.5c1.11,0,1.88.22,2.31.64.42.43.64,1.21.64,2.33v.79Zm23.8,26.35c0,1.12-.21,1.9-.64,2.33-.43.43-1.2.65-2.31.65h-12.8c-1.11,0-1.88-.21-2.31-.65-.42-.43-.64-1.2-.64-2.33v-27.14c0-1.12.21-1.9.64-2.33.43-.43,1.19-.64,2.31-.64h12.8c1.11,0,1.88.22,2.31.64.42.43.64,1.21.64,2.33v.79c0,1.12-.21,1.9-.64,2.33-.43.43-1.2.65-2.31.65h-8.34v6.34h7.16c1.11,0,1.88.21,2.3.64.42.43.64,1.21.64,2.33v.8c0,1.12-.21,1.9-.64,2.33-.43.43-1.19.64-2.3.64h-7.16v6.54h8.34c1.11,0,1.88.21,2.31.64.42.43.64,1.2.64,2.33v.79Zm28.3,2.28c-.33.46-.92.69-1.76.69h-2.55c-1.15,0-2.01-.2-2.6-.59-.59-.4-1.1-1.11-1.52-2.13l-3.63-8.22h-2.5v7.97c0,1.12-.21,1.9-.64,2.33-.43.43-1.19.65-2.31.65h-1.52c-1.11,0-1.88-.21-2.3-.65-.42-.43-.64-1.2-.64-2.33v-27.14c0-1.12.21-1.9.64-2.33.42-.43,1.19-.64,2.3-.64h7.8c3.63,0,6.39.86,8.27,2.58,1.88,1.72,2.82,4.21,2.82,7.48v1.83c0,4.46-1.62,7.3-4.86,8.52l4.91,10c.39.86.43,1.52.1,1.98m28.18,0c-.33.46-.92.69-1.77.69h-2.55c-1.14,0-2.01-.2-2.6-.59-.59-.4-1.1-1.11-1.52-2.13l-3.63-8.22h-2.5v7.97c0,1.12-.21,1.9-.64,2.33-.43.43-1.2.65-2.31.65h-1.52c-1.11,0-1.88-.21-2.31-.65-.42-.43-.64-1.2-.64-2.33v-27.14c0-1.12.21-1.9.64-2.33.43-.43,1.19-.64,2.31-.64h7.8c3.63,0,6.39.86,8.27,2.58,1.88,1.72,2.82,4.21,2.82,7.48v1.83c0,4.46-1.62,7.3-4.85,8.52l4.91,10c.39.86.42,1.52.1,1.98m29.05.02c-.36.44-1.06.67-2.11.67h-1.82c-1.11,0-1.92-.21-2.43-.62-.5-.42-.87-1.18-1.1-2.31l-.69-3.32h-8l-.68,3.32c-.23,1.12-.59,1.89-1.1,2.31-.51.41-1.32.62-2.43.62h-1.81c-1.05,0-1.75-.22-2.11-.67-.36-.45-.42-1.2-.2-2.26l6.09-27.24c.26-1.12.65-1.89,1.15-2.3.51-.41,1.31-.62,2.43-.62h5.35c1.11,0,1.92.21,2.43.62.51.42.89,1.18,1.15,2.3l6.08,27.24c.23,1.06.16,1.81-.2,2.26m-14.72-12.31h5.2l-.2-.84c-1.51-7.23-2.32-12.37-2.45-15.4-.2,3.6-.98,8.72-2.36,15.36l-.2.89Zm-21.89-8.12v-2.03c0-1.22-.31-2.07-.93-2.55-.62-.48-1.6-.72-2.94-.72h-3.14v8.77h3.28c2.49,0,3.73-1.15,3.73-3.47m-28.18,0v-2.03c0-1.22-.31-2.07-.93-2.55-.62-.48-1.6-.72-2.94-.72h-3.14v8.77h3.29c2.49,0,3.73-1.15,3.73-3.47"/></g></svg>