<?xml version="1.0" encoding="UTF-8"?>
<svg xmlns="http://www.w3.org/2000/svg" version="1.1" viewBox="0 0 128 100">
  <defs>
    <style>
      .cls-1 {
        fill: #fff;
      }

      .cls-2 {
        fill: #d5002d;
      }
    </style>
  </defs>
  <!-- Generator: Adobe Illustrator 28.7.1, SVG Export Plug-In . SVG Version: 1.2.0 Build 142)  -->
  <g>
    <g id="Laag_1">
      <path id="vlak" class="cls-2" d="M0,0h128v92c0,4.4-3.6,8-8,8H8c-4.4,0-8-3.6-8-8V0h0Z"/>
      <path id="Drenthe" class="cls-1" d="M18.6,26.8c-.1-2.5,1.8-4.7,4.3-4.8.2,0,.3,0,.5,0h10.4c14,0,22,9,22,22.9s-8.5,21.6-21.4,21.6h-10.9c-2.1,0-4.9-1.1-4.9-4.7V26.8ZM28,57.9h6.3c8,0,11.7-5.9,11.7-13.5s-3.8-13.8-12.4-13.8h-5.6v27.3Z"/>
      <path id="Dot" class="cls-1" d="M65.2,40.5c2.7,0,4.9,2.2,4.9,4.9s-2.2,4.9-4.9,4.9-4.9-2.2-4.9-4.9c0,0,0,0,0,0,0-2.7,2.2-4.9,4.9-4.9h0Z"/>
      <path id="College" class="cls-1" d="M102.3,57.9h-6.3c-8.1,0-11.8-5.9-11.8-13.4s3.7-13.8,12.4-13.8h12.4v-3.8c.1-2.5-1.8-4.7-4.4-4.8-.2,0-.3,0-.5,0h-7.7c-14,0-22,9-22,22.9,0,13.1,8.6,21.6,21.4,21.6h8.2c2.1,0,4.9-1.1,4.9-4.7v-4h-6.7Z"/>
      <path id="_D" class="cls-1" d="M19.1,86.1v-6.7h1.9c2.3,0,3.5,1.1,3.5,3.2s-1,3.5-3.4,3.5h-2.1ZM21.1,85.3c1.6,0,2.5-.9,2.5-2.7s-.8-2.4-2.6-2.4h-.9v5.1h1Z"/>
      <path id="_R" class="cls-1" d="M26.5,86.1v-6.7h2.1c1.4,0,2.4.6,2.4,1.9,0,.8-.4,1.5-1.2,1.9l1.4,2.8h0c0,0-1,0-1,0l-1.3-2.6h-1.5v2.6h-1ZM29.1,82.7c.6-.2.9-.7.9-1.3,0-.9-.5-1.2-1.4-1.2h-1.1v2.5h1.6Z"/>
      <polygon id="_E" class="cls-1" points="33.2 86.1 33.2 79.4 37.2 79.4 37.2 80.2 34.2 80.2 34.2 82.2 36.8 82.2 36.8 83 34.2 83 34.2 85.3 37.2 85.3 37.2 86.1 33.2 86.1"/>
      <polygon id="_N" class="cls-1" points="43.6 86.1 40.2 81 40.2 86.1 39.2 86.1 39.2 79.4 40.2 79.4 43.6 84.5 43.6 79.4 44.6 79.4 44.6 86.1 43.6 86.1"/>
      <polygon id="_T" class="cls-1" points="48.4 86.1 48.4 80.2 46.3 80.2 46.3 79.4 51.4 79.4 51.4 80.2 49.3 80.2 49.3 86.1 48.4 86.1"/>
      <polygon id="_H" class="cls-1" points="57.3 86.1 57.3 82.9 54.1 82.9 54.1 86.1 53.1 86.1 53.1 79.4 54.1 79.4 54.1 82.1 57.3 82.1 57.3 79.4 58.2 79.4 58.2 86.1 57.3 86.1"/>
      <polygon id="_E-2" class="cls-1" points="60.6 86.1 60.6 79.4 64.6 79.4 64.6 80.2 61.6 80.2 61.6 82.2 64.2 82.2 64.2 83 61.6 83 61.6 85.3 64.6 85.3 64.6 86.1 60.6 86.1"/>
      <path id="_C" class="cls-1" d="M66.2,82.7c-.2-1.6,1-3.1,2.6-3.3.2,0,.3,0,.5,0,.6,0,1.2.1,1.8.5v.6h-.2c-.5-.2-1-.4-1.5-.3-1.3,0-2.1,1-2.1,2.6s.8,2.7,2.1,2.7c.5,0,1.1-.1,1.5-.4h.2v.6c-.5.4-1.2.6-1.9.6-2,0-3-1.5-3-3.5h0Z"/>
      <path id="_O" class="cls-1" d="M72.5,82.8c0-2.2,1.1-3.4,3-3.4s3,1.2,3,3.4-1.1,3.4-3,3.4-3-1.2-3-3.4h0ZM77.5,82.8c0-1.7-.7-2.7-2-2.7s-2,1-2,2.7.7,2.7,2,2.7,2-1,2-2.7h0Z"/>
      <polygon id="_L" class="cls-1" points="80.5 86.1 80.5 79.4 81.4 79.4 81.4 85.3 84.1 85.3 84.1 86.1 80.5 86.1"/>
      <polygon id="_L-2" class="cls-1" points="85.9 86.1 85.9 79.4 86.8 79.4 86.8 85.3 89.6 85.3 89.6 86.1 85.9 86.1"/>
      <polygon id="_E-3" class="cls-1" points="91.3 86.1 91.3 79.4 95.3 79.4 95.3 80.2 92.2 80.2 92.2 82.2 94.9 82.2 94.9 83 92.2 83 92.2 85.3 95.3 85.3 95.3 86.1 91.3 86.1"/>
      <path id="_G" class="cls-1" d="M96.9,82.7c-.1-1.7,1.2-3.2,2.9-3.3.1,0,.3,0,.4,0,.6,0,1.3.2,1.8.5v.6h-.2c-.5-.3-1-.4-1.6-.3-1.3,0-2.3.8-2.3,2.6s.8,2.7,2.1,2.7c.4,0,.8-.1,1.2-.3v-1.7h-1v-.8h1.9v3c-.7.4-1.5.6-2.3.6-2.1,0-3-1.4-3-3.5h0Z"/>
      <polygon id="_E-4" class="cls-1" points="104.4 86.1 104.4 79.4 108.4 79.4 108.4 80.2 105.4 80.2 105.4 82.2 108 82.2 108 83 105.4 83 105.4 85.3 108.5 85.3 108.5 86.1 104.4 86.1"/>
    </g>
  </g>
</svg>