<?xml version="1.0" encoding="UTF-8"?>
<svg xmlns="http://www.w3.org/2000/svg" version="1.1" viewBox="0 0 565.1 99.9">
  <defs>
    <style>
      .cls-1 {
        fill: none;
        stroke: #ebebeb;
        stroke-miterlimit: 10;
        stroke-width: .5px;
      }

      .cls-2 {
        fill: #ebebeb;
      }

      .cls-3 {
        fill: #121212;
      }

      .cls-4 {
        display: none;
      }

      .cls-5 {
        fill: #ffdc00;
      }
    </style>
  </defs>
  <!-- Generator: Adobe Illustrator 28.7.1, SVG Export Plug-In . SVG Version: 1.2.0 Build 142)  -->
  <g>
    <g id="lockup" class="cls-4">
      <rect class="cls-1" x="50.6" y="50.6" width="564.5" height="70.7"/>
      <path class="cls-2" d="M0,50.6h12.2l23.7,40.4c-.2-4-.3-7.7-.3-10.8v-29.6h15v70.7h-12.3l-23.7-40.2c.3,4.1.4,8,.4,11.1v29.1H0V50.6Z"/>
      <path class="cls-2" d="M615.1,50.6h12.2l23.7,40.4c-.2-4-.3-7.7-.3-10.8v-29.6h15v70.7h-12.3l-23.7-40.2c.3,4.1.4,8,.4,11.1v29.1h-15V50.6Z"/>
      <path class="cls-2" d="M121.3,0v12.2l-40.4,23.7c4-.2,7.7-.3,10.8-.3h29.6v15H50.6v-12.3l40.2-23.7c-4.1.3-8,.4-11.1.4h-29.1V0h70.7Z"/>
      <path class="cls-2" d="M121.3,121.3v12.2l-40.4,23.7c4-.2,7.7-.3,10.8-.3h29.6v15H50.6v-12.3l40.2-23.7c-4.1.3-8,.4-11.1.4h-29.1v-15h70.7Z"/>
    </g>
    <g id="Logo">
      <g>
        <path class="cls-3" d="M.6,6.7h12.2l23.7,40.4c-.2-4-.3-7.7-.3-10.8V6.7h15v70.7h-12.3L15.2,37.3c.3,4.1.4,8,.4,11.1v29.1H.6V6.7Z"/>
        <path class="cls-3" d="M82.4,66.5c6.1,0,8.3-4.6,8.3-11.8v-8.5c0-7.2-2.1-11.8-8.3-11.8s-8.3,4.6-8.3,11.8v8.5c0,7.2,2.1,11.8,8.3,11.8M59.7,45.7c0-15,9.6-24,22.8-24s22.8,9,22.8,24v9.5c0,15-9.6,24-22.8,24s-22.8-9-22.8-24v-9.5Z"/>
        <path class="cls-3" d="M136.4,66.5c6.1,0,8.3-4.6,8.3-11.8v-8.5c0-7.2-2.1-11.8-8.3-11.8s-8.3,4.6-8.3,11.8v8.5c0,7.2,2.1,11.8,8.3,11.8M113.6,45.7c0-15,9.6-24,22.8-24s22.8,9,22.8,24v9.5c0,15-9.6,24-22.8,24s-22.8-9-22.8-24v-9.5Z"/>
        <path class="cls-3" d="M167.7,42.9c0-12.7,9.5-21.1,21.7-21.1s7,.6,10.1,1.7l-2.8,12.1c-2.2-.6-4.8-1.2-7.3-1.2-4.6,0-7.3,3.6-7.3,8.5v34.9h-14.5v-34.9Z"/>
        <path class="cls-3" d="M225.1,66.5c4.5,0,7.8-3.6,7.8-10.8v-19.5c-2.5-1-5.1-1.9-7.7-1.9-4.5,0-8,2.9-8,10.9v10.5c0,7.2,3.4,10.8,7.9,10.8M202.7,44.8c0-15.5,10.3-23,21.1-23s6.8,1.3,9,2.5V1.2h14.6v55c0,14.4-10.3,22.9-22.4,22.9s-22.4-8.5-22.4-22.9v-11.5Z"/>
        <path class="cls-3" d="M285.2,44.4v-1.5c0-4.7-2.7-8.5-7.3-8.5s-7.3,3.7-7.3,8.5v1.5h14.5ZM256.2,44.9c0-15.1,9.7-23.1,21.8-23.1s21.9,8.7,21.9,21.1v11.9h-29.1v.7c0,7.4,3.2,11,9.4,11s9.9-1,14.6-2.6l2.9,12c-5.8,2.2-10.3,3.2-17.5,3.2-14.3,0-23.9-8.3-23.9-23.6v-10.7Z"/>
        <path class="cls-3" d="M308.6,42.9c0-12.7,9.5-21.1,21.7-21.1s7,.6,10.1,1.7l-2.8,12.1c-2.2-.6-4.8-1.2-7.3-1.2-4.6,0-7.3,3.6-7.3,8.5v34.9h-14.5v-34.9Z"/>
        <path class="cls-3" d="M366.3,66.5c4.4,0,7.9-2.9,7.9-10.9v-10.5c0-7.2-3.4-10.8-7.8-10.8s-7.9,3.6-7.9,10.8v19.5c2.6,1,5.1,1.9,7.8,1.9M358.5,99.9h-14.6v-55.2c0-14.4,10.3-22.9,22.5-22.9s22.4,8.5,22.4,22.9v11.5c0,15.5-10.3,23-21.1,23s-6.9-1.3-9.1-2.5v23.2Z"/>
        <path class="cls-3" d="M498.7,42.9c0-12.7,9.5-21.1,21.7-21.1s7,.6,10.1,1.7l-2.8,12.1c-2.2-.6-4.8-1.2-7.3-1.2-4.6,0-7.3,3.6-7.3,8.5v34.9h-14.5v-34.9Z"/>
        <polygon class="cls-3" points="541.9 8.4 541.9 23.1 533.2 23.1 535.3 33.1 541.9 33.1 541.9 77.8 556.5 77.8 556.5 33.1 565.1 33.1 565.1 23.1 556.5 23.1 556.5 6.4 541.9 8.4"/>
        <path class="cls-5" d="M467.9,65.2c-8.2.4-11.3-6-17.4-15.3,5.3-9,9.3-13.9,16-14.2h.2c6.3-.3,12.5,5.9,12.8,13.6.2,9.6-3.7,15.6-11.6,16M420.2,65.1h-.2c-6.3,0-12.2-6.5-12.2-14.2.2-9.6,4.3-15.4,12.2-15.4s11.1,6.5,16.7,16.1c-5.6,8.8-9.8,13.5-16.6,13.5M468.6,21.8c-13.7,0-20.8,9.9-24.5,14.8-7.1-11-13.8-14.8-23.9-14.8-14.3,0-25.3,11.3-25.3,28.9s11.9,28.5,23.8,28.5,18.3-5.4,25.6-15.9c8.6,14.9,16.4,15.9,23.9,15.9,12,0,24.2-10.5,24.2-29.4v-.3c0-17-11.3-27.7-23.8-27.7"/>
      </g>
    </g>
  </g>
</svg>