<?xml version="1.0" encoding="UTF-8"?>
<svg xmlns="http://www.w3.org/2000/svg" xmlns:xlink="http://www.w3.org/1999/xlink" version="1.1" viewBox="0 0 376 115.7">
  <defs>
    <style>
      .cls-1 {
        fill: none;
      }

      .cls-2 {
        fill: #54693a;
      }

      .cls-3 {
        fill: #40958b;
      }

      .cls-4 {
        fill: #fff;
      }

      .cls-5 {
        fill: #563230;
      }

      .cls-6 {
        fill: #b9352b;
      }

      .cls-7 {
        fill: #e4a02f;
      }

      .cls-8 {
        clip-path: url(#clippath);
      }
    </style>
    <clipPath id="clippath">
      <rect class="cls-1" x="1" width="375" height="116.4"/>
    </clipPath>
  </defs>
  <!-- Generator: Adobe Illustrator 28.7.1, SVG Export Plug-In . SVG Version: 1.2.0 Build 142)  -->
  <g>
    <g id="Laag_1">
      <rect class="cls-4" x="1" width="375" height="116.4"/>
      <g class="cls-8">
        <g>
          <path class="cls-5" d="M46.4,68.9l11-8.1c.6-.5,1.2-1.3,1.5-2.1-2.2-2.9-4.7-5.7-7.4-8.3-.2-.2-.4-.4-.6-.5-2.6,2.8-5,5.9-7.3,9.1-1.6,2.4-3,4.8-4.3,7.3l3.6,2.6c1,.7,2.6.7,3.6,0Z"/>
          <path class="cls-5" d="M72.6,91.3c-.7-5-1.9-9.9-3.7-14.6,0,0-4,3.7-24.2,3.7s-7.9-.2-10.8-.4c-2.1,7.2-3,14.6-2.8,22l8.3,6.1c2.9,2.2,7.7,2.2,10.7,0l22.6-16.7h0Z"/>
          <path class="cls-6" d="M59.2,42.1c-2.9,2.3-5.7,4.9-8.3,7.7.2.2.4.4.6.5,2.7,2.6,5.2,5.4,7.4,8.3.2-.5.3-1,.3-1.4v-15.2h0Z"/>
          <path class="cls-6" d="M88.3,27.7c-5.7,1.5-11.2,3.5-16.4,6.2,0,.2,0,.4,0,.6v35.3c0,2.2-1.4,5.3-3,6.9,1.8,4.8,3,9.7,3.7,14.6l10.3-7.6c2.9-2.2,5.3-6.8,5.3-10.4V27.7Z"/>
          <path class="cls-3" d="M33.8,79.9c-11-1-13.4-3.2-13.4-3.2-1.7-1.5-3-4.6-3-6.9v-35.3c0-.8.2-1.7.5-2.5-5.5-1.3-11.2-2-16.9-2.1v43.3c0,3.6,2.4,8.3,5.3,10.4l24.7,18.2c-.2-7.3.7-14.8,2.8-22"/>
          <path class="cls-3" d="M31.8,60.7l7.5,5.5c1.3-2.5,2.7-4.9,4.3-7.3,2.2-3.3,4.6-6.3,7.3-9.1-6.1-5.7-13-10.2-20.3-13.5-.3.7-.5,1.4-.5,2v18.9c0,1.2.8,2.8,1.8,3.5Z"/>
          <path class="cls-7" d="M44.6,32.8c-10.8,0-13,2-13,2-.9.8-1.6,2.4-1.6,3.6,0-.6.2-1.3.5-2,3.9,1.7,7.6,3.8,11.2,6.2,3.3-2.9,6.2-6.1,8.8-9.5-1.6-.1-3.5-.2-5.9-.2Z"/>
          <path class="cls-2" d="M30.6,36.3c-.3.7-.5,1.4-.5,2h0v12.3c3.7-2,7.3-4.4,10.7-7.3.3-.3.7-.6,1-.9-3.6-2.4-7.3-4.5-11.2-6.2"/>
          <path class="cls-7" d="M44.6,0C12.2,0,5.8,5.9,5.8,5.9c-2.7,2.5-4.8,7.4-4.8,11v13.1c5.7,0,11.3.7,16.9,2.1.6-1.6,1.6-3.1,2.8-4l20.6-15.2c.9-.7,2.1-1,3.3-1s2.4.3,3.3,1l9.8,7.2c2.5-6.2,4-12.8,4.3-19.4-4.8-.4-10.5-.7-17.5-.7h0Z"/>
          <path class="cls-2" d="M1,30v28.1c5.5,0,11-.9,16.4-2.4v-21.2c0-.8.2-1.6.5-2.5-5.5-1.3-11.2-2-16.9-2.1Z"/>
          <path class="cls-5" d="M131,14.7c-1.3,0-2.6,0-3.8.2-1.2.1-2.3.3-3.4.5-1,.2-2,.4-2.8.7-.9.3-1.5.5-1.8.8-.2.1-.4.3-.8.5h-.1c0,.1-.5-1.8-.5-1.8h-6.5v62.5h8v-19.5c1,.2,2.1.4,3.1.5,2,.3,4.3.4,6.8.4s6.1-.4,8.4-1.2c2.3-.8,4.3-2,5.8-3.4,1.9-1.8,3.4-4.4,4.5-7.6,1.1-3.1,1.7-6.9,1.7-11.3s-.6-8.5-1.7-11.2c-1.1-2.8-2.5-4.9-4.1-6.3-1.5-1.3-3.3-2.3-5.4-2.8-2-.5-4.5-.8-7.4-.8h0ZM128.5,52.1c-2.1,0-4.1-.1-5.9-.3-1.2-.2-2.3-.3-3.3-.4v-27.7c1.4-.5,2.8-.9,4.3-1.2,2-.4,4-.5,6-.5,4,0,7,.7,8.5,1.9.9.8,1.7,2.2,2.4,4,.7,2,1.1,4.7,1.1,8.3s-.4,6.6-1.1,8.8c-.7,2.1-1.6,3.7-2.6,4.6-.9.8-2,1.5-3.4,1.8-1.5.4-3.5.6-5.8.6"/>
          <path class="cls-5" d="M179.5,14.8c-1.5,0-3,0-4.5.2-1.4.1-2.8.3-4.2.5-1.3.2-2.6.4-3.7.7-1.1.2-2,.5-2.8.6l-1.4.4v7.1l2.3-.5c.6-.1,1.5-.3,2.5-.4l3.5-.5c1.2-.2,2.5-.3,3.8-.4,1.3-.1,2.6-.2,3.8-.2,2,0,3.8.2,5,.5.9.2,1.7.6,2,1,.2.3.5.7.7,1.2.2.4.4,1,.6,1.8.2.8.3,1.8.4,2.9,0,.8,0,1.6.1,2.6-5.8.5-10.6,1.2-14.3,1.9-4.4.8-7.4,1.9-9.1,3.1-1.1.7-2.1,1.9-2.9,3.5-.8,1.6-1.2,3.6-1.2,6.2s.2,3.8.7,5.2c.5,1.5,1.2,2.7,2.1,3.7,1,1.2,2.5,2.1,4.4,2.8,1.8.7,4.3,1,7.4,1s6.7-.4,9-1.1c2.4-.7,3.8-1.3,4.7-1.9h0c0,0,.6,2.3.6,2.3h6.5v-26.4c0-2,0-3.7-.2-5.2-.2-1.5-.4-2.7-.6-3.8-.3-1.1-.7-2.1-1.1-2.9-.5-.8-.9-1.5-1.4-2-1.2-1.4-2.9-2.3-5.1-2.9-2-.5-4.5-.8-7.4-.8h0ZM176,52.3c-2,0-3.6-.2-4.7-.5-1.2-.4-1.8-.8-2.1-1.1-.3-.4-.6-.9-.8-1.5-.2-.7-.3-1.6-.3-2.7s.1-2.3.4-2.9c.2-.6.5-1,.9-1.4,0,0,.4-.3,1.9-.8,1.3-.4,3-.7,4.9-1,1.9-.3,4.1-.6,6.5-.9,1.7-.2,3.3-.3,5-.5v11.2c-1,.4-2.3.8-3.8,1.2-2.2.6-4.8.9-7.7.9"/>
          <path class="cls-5" d="M221.5,5.7l-8,2v7.8h-8.7v7.2h8.7v25.2c0,4,1,6.9,3,8.6,2,1.8,5,2.6,9.1,2.6s3.3,0,4.9-.3c1.6-.2,3-.4,4.2-.7l1.4-.3-.6-7.1-1.1.3c-.8,0-2,.2-3.4.4-1.3.2-2.8.3-4.4.3s-1.9,0-2.7-.2c-.5-.1-1-.3-1.3-.6-.4-.3-.6-.7-.8-1.2-.2-.6-.4-1.5-.4-2.6v-24.5h15.4l-2.8-7.2h-12.7V5.7Z"/>
          <path class="cls-5" d="M284.9,15.5h-8.7l-12.8,32-12.6-32h-8.7l16.6,43.2h.1l-8,19.3h8.5l25.4-62.5Z"/>
          <path class="cls-5" d="M313.4,14.9c-1.4,0-2.8,0-4.1.3-1.3.2-2.5.4-3.7.6-1.2.3-2.2.5-3.1.8-1,.3-1.8.7-2.4,1l-.5.4-.7-2.5h-6.4v43.2h8V24.3c1.2-.4,2.7-.9,4.3-1.3,2.1-.5,4.3-.8,6.8-.8s3.3.2,4.6.5c1.2.3,2.1.8,2.8,1.4.7.6,1.2,1.5,1.6,2.7.4,1.3.6,3.2.6,5.5v26.3h8v-27.7c0-5.8-1.3-9.9-4-12.3-1.3-1.3-2.9-2.2-4.9-2.9-1.8-.6-4.2-.9-7-.9"/>
          <path class="cls-5" d="M360.1,14.8c-1.5,0-3,0-4.5.2-1.4.1-2.8.3-4.2.5-1.4.2-2.6.4-3.7.7-1.1.2-2.1.5-2.8.6l-1.4.4v7.1l2.3-.5c.7-.1,1.5-.3,2.5-.4l3.5-.5c1.2-.2,2.5-.3,3.8-.4,1.3-.1,2.6-.2,3.8-.2,2,0,3.8.2,5,.5.9.2,1.7.6,2,1,.2.3.5.7.7,1.2.2.5.4,1,.6,1.8.2.8.3,1.8.4,2.9,0,.8,0,1.6.1,2.6-5.8.5-10.6,1.2-14.3,1.9-4.4.8-7.4,1.9-9.1,3.1-1.1.7-2.1,1.9-2.9,3.5-.8,1.6-1.2,3.6-1.2,6.2s.2,3.8.7,5.2c.5,1.5,1.2,2.7,2.1,3.7,1,1.2,2.5,2.1,4.4,2.8,1.8.7,4.2,1,7.4,1s6.7-.4,9-1.1c2.4-.7,3.8-1.3,4.7-1.9h.1c0,0,.5,2.3.5,2.3h6.5v-26.4c0-2,0-3.7-.2-5.2-.2-1.5-.4-2.7-.6-3.8-.3-1.1-.7-2.1-1.1-2.9-.5-.8-.9-1.4-1.4-2-1.2-1.4-2.9-2.3-5.1-2.9-2-.5-4.5-.8-7.4-.8h0ZM356.5,52.3c-2,0-3.6-.2-4.7-.5-1.3-.4-1.8-.8-2.1-1.1-.3-.4-.6-.9-.8-1.5-.2-.7-.4-1.6-.4-2.7s.1-2.3.4-2.9c.2-.6.5-1,.9-1.4,0,0,.4-.3,1.9-.8,1.3-.4,3-.7,4.9-1,1.9-.3,4.1-.6,6.5-.9,1.7-.2,3.3-.3,5-.5v11.2c-1,.4-2.3.8-3.9,1.2-2.2.6-4.8.9-7.7.9"/>
          <path class="cls-5" d="M228.5,108.3c-.3,0-.6,0-1,0s-.8-.1-1-.3c-.2-.1-.3-.5-.3-1.3v-15.3h-2.1v15.5c0,1.1.3,2,.7,2.5.5.5,1.3.8,2.3.8s.9,0,1.3,0c.4,0,.7-.1,1-.2h.3v-1.8h-.4c-.2,0-.5.1-.8.2Z"/>
          <path class="cls-5" d="M176.5,100.9c-.3-.2-.5-.4-.9-.6s-.7-.2-1.1-.2c-.8,0-1.4.3-2,.8-.5.5-.8,1.2-.8,1.9s.3,1.4.8,1.9c.5.5,1.2.8,2,.8s.7,0,1.1-.2c.3-.1.6-.3.9-.6.3-.2.4-.5.6-.8.1-.3.2-.7.2-1.1s0-.7-.2-1.1c-.1-.3-.4-.6-.6-.9h0Z"/>
          <path class="cls-5" d="M201.4,108l-3.4-11.1h-2.7l-3.9,11.1-2.8-11.1h-2.1l3.4,13.1h2.8l3.8-11,3.4,11h2.8l4.1-13.1h-2.1l-3.3,11.1Z"/>
          <path class="cls-5" d="M219.4,98.1c-.4-.5-1-.8-1.6-1.1-.7-.2-1.5-.4-2.4-.4-2.1,0-3.7.6-4.7,1.8-1,1.2-1.5,2.9-1.5,5.1s.1,2,.3,2.9c.2.8.6,1.5,1.1,2.1.5.6,1.1,1,1.9,1.3.8.3,1.7.4,2.8.4s1.8,0,2.5-.2c.8-.1,1.4-.2,1.9-.4h.3c0,0,.1-1.8.1-1.8h-.5c-.5.2-1,.2-1.7.3-.7.1-1.5.2-2.4.2s-1.5-.1-2.1-.3c-.5-.2-.9-.5-1.2-.9-.3-.4-.5-.9-.7-1.5-.1-.5-.2-1.1-.2-1.8h9.3v-1.9c0-.8,0-1.6-.3-2.2-.2-.7-.5-1.2-.9-1.7h0ZM218.5,102.2h-7.2c.1-1.2.5-2.1,1-2.7.6-.7,1.5-1,2.9-1s1.2,0,1.6.2c.4.1.7.4,1,.6.2.3.4.6.5,1.1.1.5.2,1,.2,1.7h0c0,0,0,0,0,0Z"/>
          <path class="cls-5" d="M121.8,99v-2.1h-10.1l-.5,1.9h8.2l-8.5,9.3v2h10.8l.6-1.9h-8.9l8.4-9.2Z"/>
          <path class="cls-5" d="M147.4,96.8c-.3,0-.6,0-.9,0-.8,0-1.6,0-2.2.3-.6.2-1.1.4-1.5.6,0,0,0,0-.1.2l-.2.2-.2-1.1h-1.7v13.1h2.1v-10.6c.1,0,.3-.2.5-.2.3-.1.5-.2.9-.3.3,0,.6-.2,1-.2.6,0,1.4,0,2.1,0,.3,0,.6,0,.7,0h.4c0,0,0-1.9,0-1.9h-.3c-.2,0-.4-.1-.7-.1h0Z"/>
          <path class="cls-5" d="M160,97.3c-.5-.1-1.1-.2-1.7-.3-.7-.1-1.4-.2-2.3-.2s-2.1.1-2.8.4c-.8.3-1.3.6-1.8,1-.6.6-1,1.4-1.4,2.4-.3,1-.5,2.1-.5,3.5s.2,2.4.5,3.2c.3.9.8,1.5,1.3,1.9.4.3.9.6,1.5.8.6.2,1.4.3,2.3.3s1.6,0,2.3-.2c.7-.1,1.1-.3,1.3-.4,0,0,.2,0,.4-.3,0,.6,0,1.1,0,1.5,0,.5-.1.9-.2,1.2,0,.3-.2.6-.3.8-.1.2-.2.4-.3.5-.3.2-.6.4-1.1.6-.5.2-1.2.2-2.1.2s-1.8,0-2.6-.2c-.8,0-1.4-.2-1.8-.3h-.4c0,0,0,1.8,0,1.8h.3c.4.1,1,.2,1.8.3.8.1,1.7.2,2.7.2s2.1-.1,2.8-.4c.7-.2,1.3-.6,1.7-.9.3-.2.5-.5.7-.8.2-.3.4-.7.5-1.2.1-.4.3-1,.3-1.6,0-.6.1-1.4.1-2.2v-12.1h-.7l-.6.4h0ZM159.2,107.8c-.5.2-1,.3-1.6.4-1.3.2-2.6.2-3.6,0-.5-.1-.9-.3-1.2-.5-.3-.2-.6-.7-.8-1.3-.2-.6-.3-1.5-.3-2.6s.1-2,.3-2.7c.2-.7.5-1.2.8-1.5.3-.3.7-.5,1.2-.7.5-.2,1.2-.2,2-.2s1.3,0,1.8,0c.4,0,.9.1,1.2.2v8.9h0Z"/>
          <path class="cls-5" d="M135.3,98c-.4-.4-1-.8-1.7-1-.7-.3-1.6-.4-2.6-.4s-2,.1-2.7.4c-.8.3-1.4.6-1.9,1.1-.6.6-1.1,1.4-1.4,2.3-.3,1-.5,2.1-.5,3.3s.1,2.3.4,3c.3.8.6,1.4,1,1.9.5.5,1.1.9,1.8,1.2.7.3,1.7.4,2.8.4s2.1-.1,2.9-.4c.7-.3,1.4-.7,1.8-1.2.5-.5.9-1.3,1.3-2.2.3-.9.5-2,.5-3.3s-.1-2.4-.4-3.2c-.3-.8-.7-1.5-1.2-2h0ZM134.4,106c-.2.7-.5,1.2-.9,1.5-.3.3-.7.5-1.2.7-.5.2-1.1.3-1.8.3s-1.5-.1-2-.3c-.5-.2-.9-.5-1.1-.8-.3-.3-.5-.8-.7-1.4-.2-.6-.3-1.4-.3-2.3s.1-2,.4-2.7c.3-.7.6-1.2.9-1.5.3-.2.6-.4,1.1-.6.5-.2,1.1-.3,1.8-.3s1.4,0,1.8.3c.5.2.8.4,1.1.7.2.2.3.4.4.6.1.2.2.5.3.8,0,.3.2.7.2,1.1,0,.4,0,1,0,1.6,0,1.1-.1,1.9-.4,2.6h0Z"/>
          <path class="cls-5" d="M268,97c-.6-.2-1.3-.3-2.1-.3s-.8,0-1.3,0c-.4,0-.8.1-1.1.2-.4,0-.7.2-1,.2-.3,0-.5.2-.8.4h-.1c0,.2-.1.2-.2.3l-.3-1h-1.6v13.1h2.1v-10.7c.4-.2.9-.3,1.5-.5.7-.2,1.4-.2,2.2-.2s1.1,0,1.5.2c.4.1.7.3,1,.5.2.2.4.5.6,1,.1.4.2,1,.2,1.8v8h2.1v-8.5c0-1.8-.4-3-1.2-3.7-.4-.4-.9-.7-1.4-.8h0Z"/>
          <path class="cls-5" d="M310.6,108l-3.3-10.9v-.2h-2.7l-3.9,11.1-2.8-11.1h-2.1l3.4,13.1h2.8l3.8-11,3.4,11h2.8l4.1-13.1h-2.1l-3.3,11.1Z"/>
          <path class="cls-5" d="M329.3,98c-.4-.4-1-.8-1.7-1-.7-.3-1.6-.4-2.6-.4s-2,.1-2.7.4c-.8.3-1.4.6-1.9,1.1-.6.6-1.1,1.4-1.4,2.3-.3,1-.5,2.1-.5,3.3s.1,2.3.4,3c.3.8.6,1.4,1,1.9.5.5,1.1.9,1.8,1.2.7.3,1.7.4,2.8.4s2.1-.1,2.9-.4c.7-.3,1.4-.7,1.8-1.2.5-.5.9-1.3,1.3-2.2.3-.9.5-2,.5-3.3s-.1-2.4-.4-3.2c-.3-.8-.7-1.5-1.2-2ZM328.4,106c-.2.7-.5,1.2-.9,1.5-.3.3-.7.5-1.2.7-.5.2-1.1.3-1.8.3s-1.5-.1-2-.3c-.5-.2-.9-.5-1.1-.8-.3-.3-.5-.8-.7-1.4-.2-.6-.3-1.4-.3-2.3s.1-2,.4-2.7c.3-.7.6-1.2.9-1.5.3-.2.6-.4,1.1-.6.5-.2,1.1-.3,1.8-.3s1.4,0,1.8.3c.5.2.8.4,1.1.7.2.2.3.4.4.6.1.2.2.5.3.8,0,.3.2.7.2,1.1,0,.4,0,1,0,1.6,0,1.1-.1,1.9-.4,2.6h0Z"/>
          <path class="cls-5" d="M343.2,97c-.6-.2-1.3-.3-2.1-.3s-.8,0-1.3,0c-.4,0-.8.1-1.1.2-.4,0-.7.2-1,.2-.3,0-.5.2-.8.4h-.1c0,.2-.1.2-.2.3l-.3-1h-1.6v13.1h2.1v-10.7c.4-.2.9-.3,1.5-.5.7-.2,1.4-.2,2.2-.2s1.1,0,1.5.2c.4.1.7.3,1,.5.2.2.4.5.6,1,.1.4.2,1,.2,1.8v8h2.1v-8.5c0-1.7-.4-3-1.2-3.7-.4-.4-.9-.7-1.4-.8h0Z"/>
          <path class="cls-5" d="M242.8,99v-2.1h-10.1l-.5,1.9h8.2l-8.5,9.3v2h10.8l.6-1.9h-8.9l8.4-9.2Z"/>
          <path class="cls-5" d="M359.9,98.1c-.4-.5-1-.8-1.6-1.1-.7-.2-1.5-.4-2.4-.4-2.1,0-3.7.6-4.7,1.8-1,1.2-1.5,2.9-1.5,5.1s.1,2,.3,2.9c.2.8.6,1.5,1.1,2.1.5.6,1.2,1,1.9,1.3.8.3,1.7.4,2.8.4s1.7,0,2.5-.2c.8-.1,1.4-.2,1.9-.4h.3c0,0,.2-1.8.2-1.8h-.5c-.4.2-1,.2-1.7.3-.7.1-1.5.2-2.4.2s-1.5-.1-2.1-.3c-.5-.2-.9-.5-1.2-.9-.3-.4-.5-.9-.7-1.5-.1-.5-.2-1.1-.2-1.8h9.3v-1.9c0-.8,0-1.6-.3-2.2-.2-.7-.5-1.2-.9-1.7h0ZM359,102.2h-7.2c.1-1.2.5-2.1,1-2.7.6-.7,1.5-1,2.9-1s1.2,0,1.6.2c.4.1.7.4,1,.6.2.3.4.6.5,1.1.1.5.2,1,.2,1.7h0c0,0,0,0,0,0Z"/>
          <path class="cls-5" d="M374.6,97.9c-.4-.4-.9-.7-1.4-.8-.6-.2-1.3-.3-2.1-.3s-.8,0-1.3,0c-.4,0-.8.1-1.1.2-.4,0-.7.2-1,.2-.3,0-.5.2-.8.4h-.1c0,.2-.1.2-.2.3l-.3-1h-1.6v13.1h2.1v-10.7c.4-.2.9-.3,1.5-.5.7-.2,1.4-.2,2.2-.2s1.1,0,1.5.2c.4.1.7.3,1,.5.2.2.4.5.6,1,.1.4.2,1,.2,1.8v8h2.1v-8.5c0-1.7-.4-3-1.2-3.7h0Z"/>
          <path class="cls-5" d="M285.8,100.9c-.2-.2-.5-.4-.9-.6s-.7-.2-1.1-.2c-.8,0-1.4.3-2,.8-.5.5-.8,1.2-.8,1.9s.3,1.4.8,1.9c.5.5,1.2.8,2,.8s.7,0,1.1-.2c.3-.1.6-.3.9-.6.3-.2.4-.5.6-.8.1-.3.2-.7.2-1.1s0-.7-.2-1.1c-.1-.3-.4-.6-.6-.9h0Z"/>
          <path class="cls-5" d="M248.5,96.9h-2.1v13.1h2.1v-13.1Z"/>
          <path class="cls-5" d="M247.5,94.3c.1,0,.3,0,.4,0,.2,0,.3,0,.5-.2.1-.1.2-.3.3-.5,0-.1,0-.3,0-.5,0-.4-.1-.7-.3-.9-.2-.2-.5-.3-.9-.3s-.6,0-.8.2c-.3.2-.4.5-.4.9s0,.7.3.9c.2.2.5.3.9.3h0Z"/>
          <path class="cls-5" d="M253,111.3c0,.6,0,1.1,0,1.5,0,.4-.2.7-.3.9-.1.2-.3.4-.6.4-.3.1-.7.2-1.2.2s-.9,0-1.2,0c-.4,0-.6,0-.9,0h-.4s0,1.6,0,1.6h.3c.2,0,.4.1.8.2.4,0,.9,0,1.4,0,.8,0,1.5-.1,2-.3.6-.2,1-.5,1.3-1,.3-.4.5-.9.7-1.5.1-.6.2-1.2.2-2v-14.5h-2.1v14.4h0Z"/>
          <path class="cls-5" d="M254.1,91.9c-.3,0-.6,0-.8.2-.3.2-.4.5-.4.9s0,.7.3.9c.2.2.5.3.9.3s.3,0,.4,0c.2,0,.3,0,.5-.2.1-.1.2-.3.3-.5,0-.1,0-.3,0-.5,0-.4-.1-.7-.3-.9-.2-.2-.5-.3-.8-.3Z"/>
        </g>
      </g>
    </g>
  </g>
</svg>